<svg width="15" height="16" viewBox="0 0 15 16" fill="none" xmlns="http://www.w3.org/2000/svg">
<path d="M7.5 15.0791C11.6421 15.0791 15 11.7212 15 7.5791C15 3.43697 11.6421 0.0791016 7.5 0.0791016C3.35786 0.0791016 0 3.43697 0 7.5791C0 11.7212 3.35786 15.0791 7.5 15.0791Z" fill="#627EEA"/>
<path d="M7.7334 1.95459V6.1124L11.2476 7.68271L7.7334 1.95459Z" fill="white" fill-opacity="0.602"/>
<path d="M7.73344 1.95459L4.21875 7.68271L7.73344 6.1124V1.95459Z" fill="white"/>
<path d="M7.7334 10.3769V13.2021L11.25 8.33691L7.7334 10.3769Z" fill="white" fill-opacity="0.602"/>
<path d="M7.73344 13.2021V10.3764L4.21875 8.33691L7.73344 13.2021Z" fill="white"/>
<path d="M7.7334 9.72215L11.2476 7.68168L7.7334 6.1123V9.72215Z" fill="white" fill-opacity="0.2"/>
<path d="M4.21875 7.68168L7.73344 9.72215V6.1123L4.21875 7.68168Z" fill="white" fill-opacity="0.602"/>
</svg>
