<svg width="51" height="50" viewBox="0 0 51 50" fill="none" xmlns="http://www.w3.org/2000/svg">
<path d="M25.1422 0.0215639C12.3834 0.0215639 13.1903 5.53839 13.1903 5.53839V11.2709H25.3237V13.0679H8.35809C8.35809 13.0679 0.190674 12.0615 0.190674 25.009C0.190674 37.9565 7.40208 37.43 7.40208 37.43H11.5658V31.3902C11.5658 31.3902 11.3321 24.1788 18.5741 24.1788H30.7255C30.7255 24.1788 37.5038 24.2866 37.5038 17.6161V6.67051C37.5038 6.67051 38.5317 0 25.2087 0L25.1422 0.0215639ZM18.4357 3.86178C18.8671 3.85089 19.292 3.96817 19.6567 4.19878C20.0214 4.42939 20.3095 4.76297 20.4846 5.15733C20.6597 5.55169 20.7139 5.98913 20.6404 6.41431C20.5669 6.8395 20.369 7.23333 20.0716 7.54601C19.7743 7.8587 19.3909 8.07617 18.9699 8.17095C18.549 8.26573 18.1094 8.23354 17.7067 8.07847C17.3041 7.92339 16.9564 7.65239 16.7078 7.29974C16.4591 6.94708 16.3207 6.52862 16.3099 6.09726V6.06132C16.3099 5.48273 16.5397 4.92784 16.9488 4.51872C17.358 4.10959 17.9129 3.87975 18.4914 3.87975L18.4357 3.86178Z" fill="url(#paint0_linear_13_894)"/>
<path d="M25.5016 49.9964C38.2604 49.9964 37.4536 44.4616 37.4536 44.4616V38.7471H25.3219V36.9501H42.3396C42.3396 36.9501 50.507 37.863 50.507 24.991C50.507 12.119 43.2956 12.57 43.2956 12.57H39.0781V18.5307C39.0781 18.5307 39.3117 25.7421 32.0697 25.7421H19.9129C19.9129 25.7421 13.1292 25.6397 13.1292 32.3102V43.3295C13.1292 43.3295 12.1013 50 25.4244 50H25.4962L25.5016 49.9964ZM32.2081 46.1382C31.7767 46.1491 31.3518 46.0318 30.9871 45.8012C30.6224 45.5706 30.3343 45.237 30.1592 44.8427C29.9841 44.4483 29.9299 44.0109 30.0034 43.5857C30.0769 43.1605 30.2748 42.7667 30.5722 42.454C30.8695 42.1413 31.2529 41.9238 31.6739 41.8291C32.0948 41.7343 32.5344 41.7665 32.9371 41.9215C33.3398 42.0766 33.6874 42.3476 33.936 42.7003C34.1847 43.0529 34.3231 43.4714 34.3339 43.9027V43.9567C34.3339 44.5352 34.1041 45.0901 33.695 45.4993C33.2859 45.9084 32.731 46.1382 32.1524 46.1382H32.2081Z" fill="url(#paint1_linear_13_894)"/>
<defs>
<linearGradient id="paint0_linear_13_894" x1="5.16329" y1="4.91465" x2="29.0396" y2="28.7369" gradientUnits="userSpaceOnUse">
<stop stop-color="#387EB8"/>
<stop offset="1" stop-color="#366994"/>
</linearGradient>
<linearGradient id="paint1_linear_13_894" x1="19.2885" y1="20.433" x2="46.5674" y2="44.248" gradientUnits="userSpaceOnUse">
<stop stop-color="#FFE052"/>
<stop offset="1" stop-color="#FFC331"/>
</linearGradient>
</defs>
</svg>
