<svg width="57" height="50" viewBox="0 0 57 50" fill="none" xmlns="http://www.w3.org/2000/svg">
<path d="M28.0953 29.9667C30.8662 29.9667 33.1124 27.7205 33.1124 24.9496C33.1124 22.1788 30.8662 19.9326 28.0953 19.9326C25.3245 19.9326 23.0783 22.1788 23.0783 24.9496C23.0783 27.7205 25.3245 29.9667 28.0953 29.9667Z" fill="#00D8FF"/>
<path d="M28.0954 36.4527C22.0652 36.5986 16.0501 35.7857 10.2749 34.0445C7.60706 33.1988 5.11884 31.8666 2.93596 30.1152C2.103 29.5169 1.40933 28.7454 0.902547 27.8538C0.395768 26.9622 0.0878775 25.9715 0 24.9497C0 21.6324 3.64437 18.3814 9.74909 16.2541C15.6787 14.3692 21.8741 13.4557 28.0954 13.549C34.2336 13.4632 40.346 14.3602 46.2008 16.206C48.7701 17.0251 51.1739 18.2929 53.3009 19.9507C54.1196 20.5211 54.8029 21.2646 55.3023 22.1285C55.8017 22.9924 56.105 23.9555 56.1907 24.9497C56.1907 28.3974 52.1169 31.8912 45.5546 34.0626C39.8912 35.747 34.0031 36.5531 28.0954 36.4527ZM28.0954 15.9491C22.1434 15.8695 16.2167 16.738 10.5378 18.5218C4.91869 20.4825 2.40015 23.1636 2.40015 24.9436C2.40015 26.806 5.10733 29.7339 11.0515 31.7668C16.5764 33.4241 22.329 34.1956 28.0954 34.0525C33.7473 34.1536 39.3815 33.3889 44.8021 31.7848C50.973 29.7399 53.7825 26.808 53.7825 24.9497C53.6813 24.3119 53.4489 23.7022 53.1 23.1588C52.7511 22.6155 52.2934 22.1504 51.7557 21.7929C49.8527 20.3222 47.7053 19.1986 45.4121 18.4737C39.8112 16.7152 33.9652 15.863 28.0954 15.9491Z" fill="#00D8FF"/>
<path d="M16.6967 49.9725C15.7605 49.994 14.8354 49.7669 14.0156 49.3143C11.1418 47.6567 10.1464 42.8765 11.3525 36.5249C12.6823 30.4465 14.9865 24.6231 18.1757 19.2804C21.1673 13.9204 24.9972 9.07356 29.5202 4.92365C31.5133 3.10689 33.8125 1.65765 36.3112 0.643121C37.215 0.219562 38.2009 0 39.199 0C40.1971 0 41.183 0.219562 42.0868 0.643121C45.075 2.36496 46.0643 7.63886 44.6696 14.4078C43.2987 20.1565 41.0545 25.6609 38.015 30.7292C35.1287 36.0259 31.4194 40.8305 27.0257 44.9635C24.9603 46.8515 22.5632 48.3409 19.9557 49.3564C18.9118 49.7439 17.81 49.9522 16.6967 49.9725ZM20.2547 20.4724C17.2126 25.5884 15.0042 31.1561 13.7125 36.9664C12.6028 42.8163 13.6684 46.3342 15.2176 47.2292C16.8231 48.1584 20.7203 47.2774 25.4524 43.1434C29.6467 39.1838 33.1871 34.5847 35.942 29.5171C38.8537 24.6717 41.0066 19.4091 42.3256 13.9122C43.6381 7.54053 42.5042 3.63929 40.8948 2.71214C40.2916 2.48101 39.6469 2.37755 39.0017 2.40829C38.3564 2.43903 37.7246 2.60331 37.1461 2.89075C34.9219 3.80856 32.877 5.11155 31.1056 6.73981C26.7842 10.7149 23.1259 15.3549 20.2688 20.4845L20.2547 20.4724Z" fill="#00D8FF"/>
<path d="M39.488 49.9986C36.7688 49.9986 33.3151 48.3531 29.7189 45.2606C25.1167 41.0729 21.222 36.1685 18.1857 30.7373C15.0365 25.4681 12.7506 19.729 11.4148 13.7376C10.8354 11.1016 10.7281 8.38379 11.0977 5.71034C11.1831 4.71859 11.4851 3.75766 11.9824 2.89531C12.4796 2.03296 13.1599 1.2902 13.9755 0.719399C16.9596 -1.00846 22.0228 0.767563 27.1903 5.35513C31.4861 9.41328 35.134 14.1062 38.007 19.2704C41.1543 24.4165 43.4641 30.0299 44.8502 35.9008C45.4545 38.6335 45.5477 41.4544 45.1252 44.221C45.0246 45.2413 44.7046 46.2278 44.1871 47.1128C43.6696 47.9978 42.9669 48.7605 42.127 49.3484C41.3206 49.7954 40.4098 50.0198 39.488 49.9986ZM20.2628 29.5292C23.1755 34.7197 26.8959 39.4134 31.2842 43.4344C35.7975 47.3175 39.3777 48.1524 40.9169 47.2473C42.5223 46.3141 43.7064 42.5052 42.4862 36.3423C41.1494 30.7372 38.9339 25.3789 35.9219 20.4664C33.1803 15.5239 29.6983 11.0301 25.5969 7.14119C20.7324 2.82254 16.787 1.85726 15.1795 2.78842C14.6785 3.19557 14.2674 3.70217 13.9721 4.27624C13.6767 4.85032 13.5036 5.47939 13.4637 6.12374C13.1446 8.50801 13.2486 10.9299 13.7708 13.278C15.0557 19.0077 17.248 24.4953 20.2648 29.5332L20.2628 29.5292Z" fill="#00D8FF"/>
</svg>
