<svg width="15" height="16" viewBox="0 0 15 16" fill="none" xmlns="http://www.w3.org/2000/svg">
<path d="M7.5 15.0791C11.6421 15.0791 15 11.7212 15 7.5791C15 3.43697 11.6421 0.0791016 7.5 0.0791016C3.35786 0.0791016 0 3.43697 0 7.5791C0 11.7212 3.35786 15.0791 7.5 15.0791Z" fill="#26A17B"/>
<path fill-rule="evenodd" clip-rule="evenodd" d="M8.40094 8.22824V8.2273C8.34938 8.23106 8.08359 8.24699 7.49062 8.24699C7.01719 8.24699 6.68391 8.23293 6.56672 8.2273V8.22871C4.74422 8.14856 3.38391 7.83121 3.38391 7.45152C3.38391 7.0723 4.74422 6.75496 6.56672 6.6734V7.91277C6.68578 7.92121 7.02703 7.94137 7.49859 7.94137C8.06437 7.94137 8.34797 7.91793 8.40094 7.91324V6.67434C10.2197 6.75543 11.5767 7.07277 11.5767 7.45152C11.5767 7.83121 10.2197 8.14762 8.40094 8.22824ZM8.40094 6.54543V5.43637H10.9388V3.74512H4.02891V5.43637H6.56672V6.54496C4.50422 6.63965 2.95312 7.0484 2.95312 7.53777C2.95312 8.02715 4.50422 8.43543 6.56672 8.53059V12.0846H8.40094V8.52965C10.4602 8.43496 12.0075 8.02668 12.0075 7.53777C12.0075 7.04887 10.4602 6.64059 8.40094 6.54543Z" fill="white"/>
</svg>
