<svg width="45" height="50" viewBox="0 0 45 50" fill="none" xmlns="http://www.w3.org/2000/svg">
<path d="M4.20317 45.0018L0.190674 0H44.28L40.2621 44.9946L22.2085 50L4.20317 45.0018Z" fill="#E44F26"/>
<path d="M22.2353 46.1751L36.8246 42.1304L40.2567 3.68042H22.2353V46.1751Z" fill="#F1662A"/>
<path d="M22.2352 20.3697H14.9316L14.4281 14.7179H22.2352V9.19824H22.2156H8.39594L8.52808 10.6804L9.88344 25.8893H22.2352V20.3697Z" fill="#EBEBEB"/>
<path d="M22.2353 34.7037L22.2103 34.7109L16.0639 33.0519L15.671 28.6501H12.6835H10.1299L10.9032 37.3144L22.2103 40.4537L22.2353 40.4466V34.7037Z" fill="#EBEBEB"/>
<path d="M22.2157 20.3699V25.8895H29.0121L28.3728 33.0484L22.2157 34.7092V40.452L33.5318 37.3145L33.6139 36.3824L34.9103 21.852L35.0461 20.3699H33.5586H22.2157Z" fill="white"/>
<path d="M22.2156 9.19824V12.6268V14.7054V14.7179H35.5299H35.5478L35.6585 13.4786L35.9103 10.6804L36.0424 9.19824H22.2156Z" fill="white"/>
</svg>
