<svg width="45" height="50" viewBox="0 0 45 50" fill="none" xmlns="http://www.w3.org/2000/svg">
<path d="M4.29074 45.0018L0.280029 0H44.3657L40.3497 44.9946L22.2961 50L4.29074 45.0018Z" fill="#1572B6"/>
<path d="M22.3229 46.1751L36.9122 42.1304L40.3443 3.68042H22.3229V46.1751Z" fill="#33A9DC"/>
<path d="M22.3229 19.9839H29.6264L30.13 14.3321H22.3229V8.8125H22.3425H36.1622L36.03 10.2929L34.6747 25.5036H22.3229V19.9839Z" fill="white"/>
<path d="M22.3568 34.3178L22.3318 34.325L16.1854 32.6642L15.7925 28.2625H12.805H10.2515L11.0247 36.9285L22.33 40.0678L22.3568 40.0607V34.3178Z" fill="#EBEBEB"/>
<path d="M29.1569 25.2695L28.4926 32.6606L22.3373 34.3213V40.0642L33.6516 36.9285L33.7355 35.9963L34.6944 25.2695H29.1569Z" fill="white"/>
<path d="M22.3427 8.8125V12.2411V14.3179V14.3321H9.02837H9.01051L8.8998 13.0911L8.64801 10.2929L8.51587 8.8125H22.3427Z" fill="#EBEBEB"/>
<path d="M22.323 19.9839V23.4125V25.4892V25.5035H16.2712H16.2534L16.1426 24.2625L15.8926 21.4642L15.7605 19.9839H22.323Z" fill="#EBEBEB"/>
</svg>
