<svg width="15" height="16" viewBox="0 0 15 16" fill="none" xmlns="http://www.w3.org/2000/svg">
<path d="M7.5 15.0791C11.6421 15.0791 15 11.7212 15 7.5791C15 3.43697 11.6421 0.0791016 7.5 0.0791016C3.35786 0.0791016 0 3.43697 0 7.5791C0 11.7212 3.35786 15.0791 7.5 15.0791Z" fill="#F7931A"/>
<path d="M10.8697 6.65098C11.0169 5.66848 10.2683 5.1402 9.24552 4.7877L9.57739 3.45645L8.76739 3.25488L8.44396 4.55098C8.23114 4.49754 8.01271 4.44785 7.79474 4.39816L8.12052 3.09363L7.31052 2.8916L6.97864 4.22238C6.80239 4.18207 6.62896 4.1427 6.46114 4.10051L6.46208 4.09629L5.34458 3.81738L5.12896 4.6827C5.12896 4.6827 5.73036 4.82051 5.71771 4.82895C6.04583 4.91098 6.10489 5.12801 6.09505 5.30051L5.71724 6.81691C5.73974 6.82254 5.7688 6.83098 5.80161 6.84363L5.71583 6.82254L5.18614 8.94691C5.14583 9.04629 5.04411 9.19582 4.81442 9.1391C4.82286 9.15082 4.22567 8.99238 4.22567 8.99238L3.82349 9.91957L4.87817 10.1825C5.07411 10.2318 5.2663 10.2833 5.45521 10.3316L5.12005 11.6779L5.92958 11.8794L6.26146 10.5482C6.48271 10.6077 6.69739 10.663 6.90739 10.7155L6.57646 12.0411L7.38646 12.2427L7.72161 10.8993C9.10349 11.1608 10.1422 11.0554 10.5796 9.80566C10.9321 8.79973 10.5622 8.21895 9.83521 7.84066C10.3649 7.71879 10.7633 7.37051 10.8697 6.65098ZM9.01817 9.24691C8.76833 10.2533 7.0738 9.7091 6.52442 9.5727L6.96974 7.7891C7.51911 7.92645 9.28021 8.19785 9.01817 9.24691ZM9.26896 6.63645C9.04067 7.55191 7.63067 7.08645 7.17364 6.97254L7.57677 5.35535C8.0338 5.46926 9.50708 5.6816 9.26896 6.63645Z" fill="white"/>
</svg>
