<svg width="51" height="50" viewBox="0 0 51 50" fill="none" xmlns="http://www.w3.org/2000/svg">
<g clip-path="url(#clip0_13_924)">
<path d="M0.865723 0.000488281H50.8657V50.0002H0.865723V0.000488281Z" fill="#017ACB"/>
<path d="M24.8736 18.5158H27.272V22.6565H20.7876V41.0783L20.6157 41.1252C20.3814 41.1877 17.2954 41.1877 16.6314 41.1174L16.1001 41.0705V22.6565H9.61572V18.5158L11.6704 18.4924C12.7954 18.4768 15.686 18.4768 18.0923 18.4924C20.4986 18.508 23.5454 18.5158 24.8736 18.5158ZM43.1783 39.1252C42.2252 40.133 41.2017 40.6955 39.4986 41.1565C38.7564 41.3596 38.6314 41.3674 36.9595 41.3596C35.2876 41.3518 35.1548 41.3518 34.3423 41.1408C32.2408 40.6018 30.5454 39.5471 29.3892 38.0549C29.0611 37.633 28.522 36.758 28.522 36.6487C28.522 36.6174 28.6001 36.5471 28.7017 36.5002C28.8033 36.4533 29.0142 36.3205 29.1861 36.219C29.3579 36.1174 29.6704 35.9299 29.8814 35.8205C30.0923 35.7112 30.7017 35.3518 31.233 35.0315C31.7642 34.7112 32.2486 34.4533 32.3033 34.4533C32.358 34.4533 32.4595 34.5627 32.5376 34.6955C33.0064 35.4846 34.1001 36.4924 34.8736 36.8362C35.3501 37.0393 36.4048 37.2658 36.9126 37.2658C37.3814 37.2658 38.2408 37.0627 38.7017 36.8518C39.1939 36.6252 39.4439 36.3987 39.7408 35.9455C39.9439 35.6252 39.9673 35.5393 39.9595 34.9299C39.9595 34.3674 39.9283 34.2112 39.772 33.9533C39.3345 33.2346 38.7408 32.8596 36.3345 31.7971C33.8501 30.6955 32.733 30.0393 31.8267 29.1565C31.1548 28.5002 31.022 28.3205 30.6001 27.5002C30.0533 26.4455 29.9829 26.1018 29.9751 24.5315C29.9673 23.4299 29.9908 23.0705 30.1079 22.6955C30.272 22.133 30.8033 21.0471 31.0454 20.7737C31.5454 20.1877 31.7251 20.008 32.0767 19.719C33.1392 18.844 34.7955 18.2658 36.3814 18.2112C36.5611 18.2112 37.1548 18.2424 37.7095 18.2815C39.3033 18.4143 40.3892 18.8049 41.4361 19.6408C42.2252 20.2658 43.4205 21.7346 43.3033 21.9299C43.2252 22.0471 40.108 24.1252 39.9048 24.1877C39.7798 24.2268 39.6939 24.1799 39.522 23.9768C38.4595 22.7033 38.0298 22.4299 36.9986 22.3674C36.2642 22.3205 35.8736 22.4065 35.3814 22.7346C34.8658 23.0783 34.6158 23.6018 34.6158 24.3283C34.6236 25.3908 35.0298 25.8908 36.5298 26.633C37.4986 27.1096 38.3267 27.5002 38.3892 27.5002C38.483 27.5002 40.4908 28.5002 41.0142 28.8127C43.4517 30.2424 44.4439 31.7112 44.7017 34.2424C44.8892 36.1487 44.3502 37.8908 43.1783 39.1252Z" fill="white"/>
</g>
<defs>
<clipPath id="clip0_13_924">
<rect width="50" height="50" fill="white" transform="translate(0.865723)"/>
</clipPath>
</defs>
</svg>
