<svg width="51" height="50" viewBox="0 0 51 50" fill="none" xmlns="http://www.w3.org/2000/svg">
<g clip-path="url(#clip0_13_969)">
<path d="M49.7609 24.3878L47.6619 23.0883C47.6442 22.8844 47.6242 22.6806 47.6021 22.477L49.406 20.7944C49.4962 20.7106 49.5635 20.6051 49.6012 20.4879C49.639 20.3707 49.6461 20.2458 49.6219 20.1251C49.5982 20.0043 49.5439 19.8916 49.4642 19.7977C49.3845 19.7039 49.2821 19.6321 49.1668 19.5891L46.8607 18.7268C46.8028 18.5277 46.7426 18.3292 46.6801 18.1315L48.1185 16.1337C48.1906 16.0338 48.2359 15.9171 48.2502 15.7948C48.2645 15.6725 48.2472 15.5486 48.2001 15.4348C48.153 15.321 48.0776 15.2211 47.981 15.1447C47.8845 15.0683 47.77 15.0178 47.6484 14.9981L45.2168 14.6026C45.1222 14.4182 45.0238 14.2366 44.9246 14.0565L45.9463 11.8137C45.9977 11.7018 46.0195 11.5786 46.0097 11.4558C45.9998 11.333 45.9586 11.2148 45.89 11.1126C45.8219 11.01 45.7286 10.9266 45.6191 10.8704C45.5095 10.8142 45.3873 10.7872 45.2642 10.7919L42.7963 10.8778C42.6688 10.7181 42.5388 10.5605 42.4064 10.4049L42.9736 8.00104C43.002 7.88114 42.9992 7.75599 42.9655 7.63749C42.9318 7.51899 42.8683 7.41109 42.781 7.32409C42.694 7.23699 42.5862 7.17359 42.4678 7.13989C42.3494 7.10619 42.2243 7.10329 42.1045 7.13154L39.7012 7.69814C39.5451 7.56584 39.3872 7.43589 39.2273 7.30829L39.3137 4.84051C39.3183 4.71748 39.2913 4.59532 39.2352 4.48573C39.1791 4.37613 39.0958 4.28275 38.9933 4.21453C38.891 4.14602 38.7729 4.10485 38.6501 4.09494C38.5274 4.08502 38.4042 4.10669 38.2922 4.15789L36.05 5.18014C35.8691 5.08034 35.6871 4.98267 35.5039 4.88719L35.1074 2.45515C35.0876 2.33371 35.037 2.21935 34.9606 2.12291C34.8842 2.02646 34.7844 1.95113 34.6707 1.90404C34.557 1.85696 34.4332 1.83969 34.311 1.85386C34.1887 1.86803 34.0721 1.91319 33.9722 1.98504L31.973 3.42351C31.7763 3.36101 31.5785 3.30066 31.3789 3.24344L30.5166 0.936989C30.4737 0.821444 30.4019 0.718829 30.308 0.638949C30.2142 0.559074 30.1014 0.504599 29.9805 0.480742C29.8598 0.457002 29.7351 0.464376 29.6181 0.502169C29.5011 0.539964 29.3957 0.606929 29.3117 0.696759L27.6291 2.50203C27.4256 2.47922 27.2218 2.4593 27.0178 2.44226L25.7183 0.342656C25.6536 0.238032 25.5632 0.151685 25.4557 0.0918021C25.3482 0.03192 25.2272 0.000488281 25.1042 0.000488281C24.9811 0.000488281 24.8601 0.03192 24.7527 0.0918021C24.6452 0.151685 24.5548 0.238032 24.49 0.342656L23.1906 2.44226C22.9864 2.45928 22.7824 2.4792 22.5787 2.50203L20.8957 0.696759C20.8118 0.606594 20.7063 0.539399 20.5891 0.501559C20.4719 0.463718 20.347 0.456493 20.2262 0.480572C20.1054 0.504649 19.9928 0.559234 19.8991 0.639124C19.8054 0.719014 19.7337 0.821554 19.6908 0.936989L18.8287 3.24344C18.6289 3.30066 18.4312 3.3614 18.234 3.42351L16.2351 1.98504C16.1353 1.91286 16.0186 1.8675 15.8962 1.85331C15.7738 1.83912 15.6498 1.85657 15.5361 1.90398C15.4225 1.95117 15.3228 2.02655 15.2464 2.12299C15.17 2.21943 15.1195 2.33375 15.0996 2.45515L14.7031 4.88719C14.5195 4.9823 14.3381 5.08014 14.157 5.18014L11.9146 4.15769C11.8027 4.10647 11.6795 4.0848 11.5568 4.09475C11.4341 4.1047 11.3161 4.14594 11.2139 4.21453C11.1113 4.2827 11.028 4.37606 10.9718 4.48566C10.9156 4.59526 10.8886 4.71744 10.8931 4.84051L10.9791 7.30829C10.8194 7.43614 10.6615 7.56609 10.5053 7.69814L8.10194 7.13174C7.98209 7.10364 7.85699 7.10654 7.73854 7.14019C7.62009 7.17389 7.51219 7.23714 7.42499 7.32409C7.33779 7.41109 7.27429 7.51899 7.24059 7.63749C7.20684 7.75599 7.20404 7.88114 7.23244 8.00104L7.79864 10.4049C7.66719 10.5606 7.53729 10.7182 7.40979 10.8778L4.9418 10.7919C4.81889 10.788 4.69701 10.8153 4.58757 10.8714C4.47812 10.9275 4.38469 11.0104 4.31601 11.1124C4.24753 11.2147 4.20635 11.3328 4.19641 11.4556C4.18646 11.5783 4.20807 11.7015 4.25918 11.8135L5.28144 14.0565C5.18204 14.2366 5.08379 14.4182 4.98847 14.6026L2.55703 14.9981C2.43552 15.0179 2.32109 15.0684 2.22459 15.1449C2.12809 15.2213 2.05272 15.3212 2.00563 15.4349C1.95854 15.5487 1.94129 15.6726 1.95551 15.7948C1.96974 15.9171 2.01497 16.0338 2.08691 16.1337L3.52539 18.1317C3.46289 18.329 3.40215 18.527 3.34472 18.7268L1.03848 19.5891C0.923299 19.6324 0.821074 19.7043 0.741464 19.7981C0.661854 19.892 0.607499 20.0045 0.583545 20.1252C0.559589 20.2459 0.566824 20.3707 0.604564 20.4878C0.642304 20.6049 0.709304 20.7104 0.799219 20.7944L2.60332 22.4768C2.58086 22.6799 2.56094 22.8844 2.54375 23.0883L0.444336 24.3878C0.339729 24.4525 0.253416 24.543 0.193594 24.6505C0.133772 24.758 0.102428 24.879 0.102539 25.002C0.102539 25.2528 0.232032 25.485 0.444532 25.6159L2.54375 26.9153C2.56094 27.1198 2.58086 27.3239 2.60332 27.5268L0.799024 29.2098C0.708949 29.2937 0.641809 29.3992 0.603979 29.5163C0.566148 29.6335 0.558883 29.7583 0.582874 29.879C0.606864 29.9997 0.661314 30.1123 0.741054 30.2061C0.820794 30.2998 0.923174 30.3717 1.03848 30.4147L3.34472 31.277C3.40215 31.4766 3.46289 31.6749 3.52539 31.8721L2.08691 33.8704C2.01483 33.9703 1.96951 34.0869 1.95525 34.2093C1.94099 34.3316 1.95827 34.4556 2.00545 34.5693C2.05263 34.6831 2.12813 34.7829 2.22478 34.8593C2.32143 34.9356 2.43601 34.986 2.55762 35.0055L4.98867 35.401C5.08379 35.5854 5.18124 35.7671 5.28164 35.9479L4.25918 38.1901C4.20797 38.3021 4.18631 38.4254 4.19626 38.5481C4.20621 38.6708 4.24744 38.789 4.31601 38.8913C4.38419 38.9938 4.47753 39.0771 4.58709 39.1332C4.69665 39.1893 4.81878 39.2164 4.9418 39.2118L7.40859 39.1255C7.53729 39.2858 7.66679 39.443 7.79864 39.5993L7.23244 42.0036C7.20409 42.1233 7.20689 42.2482 7.24059 42.3665C7.27434 42.4848 7.33779 42.5924 7.42499 42.6792C7.51194 42.7665 7.61984 42.83 7.73839 42.8636C7.85694 42.8972 7.98214 42.8998 8.10194 42.8712L10.5053 42.3052C10.6615 42.438 10.8197 42.5669 10.9793 42.6938L10.8933 45.1624C10.8889 45.2854 10.916 45.4075 10.9721 45.517C11.0282 45.6266 11.1113 45.72 11.2137 45.7884C11.316 45.8567 11.4342 45.8978 11.5569 45.9076C11.6796 45.9174 11.8027 45.8956 11.9146 45.8444L14.157 44.8227C14.3376 44.9231 14.5196 45.0207 14.7031 45.1155L15.0996 47.5462C15.1192 47.6678 15.1696 47.7823 15.246 47.8789C15.3224 47.9755 15.4223 48.0509 15.5361 48.0979C15.6499 48.145 15.7738 48.1624 15.8961 48.1483C16.0184 48.1341 16.1351 48.0891 16.2351 48.0173L18.233 46.5778C18.4303 46.6403 18.6285 46.7014 18.8281 46.7589L19.6904 49.0643C19.7333 49.1797 19.8052 49.2822 19.899 49.3619C19.9928 49.4416 20.1055 49.4959 20.2263 49.5196C20.347 49.544 20.4719 49.5369 20.5891 49.499C20.7062 49.4612 20.8117 49.3939 20.8953 49.3036L22.5783 47.4993C22.7814 47.5227 22.9857 47.5423 23.1902 47.5604L24.4896 49.6596C24.5545 49.7641 24.6448 49.8503 24.7523 49.9101C24.8597 49.9699 24.9806 50.0012 25.1035 50.0012C25.2265 50.0012 25.3475 49.97 25.4549 49.9102C25.5624 49.8504 25.6529 49.7642 25.7178 49.6596L27.0172 47.5604C27.2217 47.5423 27.4258 47.5227 27.6287 47.4993L29.3113 49.3036C29.395 49.3938 29.5004 49.4611 29.6175 49.4989C29.7346 49.5367 29.8594 49.5439 29.9801 49.5196C30.1008 49.4958 30.2135 49.4415 30.3073 49.3618C30.4011 49.2821 30.473 49.1797 30.516 49.0643L31.3783 46.7589C31.5779 46.7014 31.7763 46.6403 31.9736 46.5778L33.9719 48.0173C34.0718 48.0891 34.1885 48.1343 34.3108 48.1484C34.4331 48.1625 34.557 48.1451 34.6707 48.098C34.7844 48.0508 34.8842 47.9753 34.9605 47.8787C35.0369 47.7822 35.0873 47.6677 35.107 47.5462L35.5035 45.1155C35.6869 45.0204 35.8683 44.9216 36.0494 44.8225L38.2918 45.8444C38.4037 45.8958 38.5269 45.9177 38.6497 45.9079C38.7724 45.8982 38.8907 45.8572 38.9931 45.7888C39.0955 45.7204 39.1787 45.6269 39.2347 45.5173C39.2908 45.4076 39.3178 45.2854 39.3133 45.1624L39.2273 42.694C39.3871 42.5669 39.5449 42.4373 39.7006 42.3052L42.1041 42.8712C42.3482 42.9286 42.6041 42.8575 42.7804 42.6792C42.8676 42.5924 42.9311 42.4848 42.9648 42.3665C42.9986 42.2482 43.0014 42.1233 42.973 42.0036L42.407 39.5993C42.5388 39.443 42.6687 39.2858 42.7957 39.1255L45.2637 39.2118C45.3867 39.2164 45.5088 39.1894 45.6184 39.1333C45.7279 39.0773 45.8213 38.994 45.8894 38.8915C45.9581 38.7892 45.9994 38.6709 46.0093 38.5481C46.0191 38.4252 45.9973 38.3019 45.9459 38.1899L44.924 35.9481C45.0238 35.7671 45.1219 35.5854 45.2164 35.4012L47.648 35.0055C47.7696 34.986 47.8841 34.9356 47.9806 34.8591C48.0771 34.7827 48.1524 34.6827 48.1992 34.5688C48.2463 34.4551 48.2636 34.3313 48.2495 34.2091C48.2353 34.0868 48.1901 33.9702 48.1181 33.8704L46.6797 31.8723C46.7418 31.6749 46.8025 31.4766 46.8603 31.277L49.1662 30.4147C49.2816 30.3718 49.3841 30.2999 49.4638 30.2061C49.5435 30.1122 49.5978 29.9994 49.6215 29.8786C49.6458 29.7579 49.6387 29.6331 49.6008 29.516C49.563 29.3989 49.4957 29.2935 49.4054 29.2098L47.6017 27.5268C47.6236 27.3237 47.6437 27.1194 47.6613 26.9155L49.7605 25.6159C49.8652 25.5513 49.9515 25.4609 50.0114 25.3535C50.0713 25.246 50.1025 25.125 50.1025 25.002C50.1025 24.7518 49.9736 24.5192 49.7609 24.3878ZM35.7117 41.8011C34.9101 41.6282 34.4004 40.8382 34.5724 40.0341C34.7439 39.2309 35.5334 38.7198 36.3347 38.8927C37.1363 39.0643 37.6469 39.8557 37.475 40.6583C37.3031 41.461 36.5129 41.9727 35.7117 41.8011ZM34.9984 36.977C34.8245 36.9397 34.6449 36.9371 34.4699 36.9692C34.295 37.0014 34.1281 37.0678 33.9788 37.1645C33.8295 37.2612 33.7007 37.3864 33.5999 37.5329C33.499 37.6795 33.428 37.8444 33.391 38.0184L32.6457 41.4964C30.3459 42.5401 27.7922 43.12 25.1025 43.12C22.3513 43.12 19.742 42.5114 17.4014 41.4231L16.6564 37.9454C16.4998 37.2135 15.7803 36.7473 15.0494 36.9044L11.9791 37.5637C11.4085 36.9764 10.8781 36.3513 10.3916 35.6927H25.331C25.5 35.6927 25.6127 35.662 25.6127 35.5081V30.2235C25.6127 30.0698 25.5 30.0391 25.3308 30.0391H20.9619V26.6895H25.6875C26.1187 26.6895 27.9939 26.8126 28.5933 29.2094C28.7812 29.9466 29.1933 32.3442 29.4754 33.1118C29.7562 33.9727 30.8998 35.6925 32.1185 35.6925H39.5629C39.6474 35.6925 39.7377 35.6829 39.8328 35.6657C39.3163 36.3672 38.7505 37.031 38.1396 37.652L34.9984 36.977ZM14.3363 41.7284C13.5346 41.9014 12.7453 41.3903 12.5728 40.5872C12.4014 39.7827 12.9111 38.993 13.7127 38.8202C14.5144 38.6487 15.3041 39.1598 15.476 39.9628C15.6474 40.7655 15.1375 41.5565 14.3363 41.7284ZM8.66894 18.7479C9.00154 19.4983 8.66309 20.3778 7.91369 20.7098C7.16424 21.0428 6.28709 20.704 5.95469 19.953C5.62209 19.202 5.96034 18.3241 6.70994 17.9911C6.88824 17.912 7.08039 17.8688 7.27539 17.8641C7.47034 17.8593 7.66434 17.893 7.84629 17.9633C8.02824 18.0336 8.19454 18.139 8.33569 18.2736C8.47684 18.4082 8.59009 18.5695 8.66894 18.7479ZM6.92714 22.8768L10.1256 21.4555C10.4539 21.3095 10.7108 21.039 10.8399 20.7036C10.969 20.3683 10.9596 19.9953 10.8139 19.6669L10.1553 18.1774H12.7459V29.8548H7.51914C7.05584 28.2237 6.82144 26.5362 6.82264 24.8407C6.82264 24.177 6.85839 23.5214 6.92714 22.8768ZM20.9627 21.7426V18.3007H27.1318C27.4506 18.3007 29.3818 18.669 29.3818 20.1132C29.3818 21.3122 27.9006 21.7421 26.6824 21.7421H20.9627V21.7426ZM43.383 24.8407C43.383 25.2973 43.3662 25.7493 43.3328 26.1977H41.4572C41.2695 26.1977 41.1939 26.3212 41.1939 26.505V27.3663C41.1939 29.3936 40.0508 29.8346 39.049 29.9469C38.0951 30.0544 37.0373 29.5475 36.907 28.9637C36.3441 25.7985 35.4064 25.1225 33.9256 23.9544C35.7635 22.7874 37.6756 21.0657 37.6756 18.761C37.6756 16.2727 35.9697 14.7053 34.8068 13.9368C33.1756 12.8614 31.3693 12.6458 30.882 12.6458H11.4851C14.1154 9.71024 17.6803 7.63074 21.7121 6.87409L23.9984 9.27254C24.1211 9.40129 24.2679 9.50459 24.4306 9.57649C24.5932 9.64839 24.7684 9.68749 24.9462 9.69159C25.124 9.69569 25.3008 9.66469 25.4666 9.60039C25.6324 9.53604 25.7838 9.43964 25.9123 9.31669L28.4705 6.86979C33.8308 7.86784 38.3693 11.2046 40.9847 15.7825L39.2334 19.7382C38.931 20.4227 39.2396 21.2233 39.9222 21.5266L43.2941 23.0243C43.3523 23.6229 43.383 24.2276 43.383 24.8407ZM23.9994 4.83367C24.5918 4.26629 25.5314 4.28875 26.0986 4.88191C26.6646 5.47684 26.6431 6.41744 26.0494 6.98444C25.457 7.55204 24.5174 7.52994 23.9502 6.93564C23.6784 6.65014 23.531 6.26854 23.5402 5.87449C23.5494 5.48044 23.7146 5.10614 23.9994 4.83367ZM41.3789 18.82C41.4577 18.6416 41.5709 18.4805 41.712 18.3459C41.8531 18.2114 42.0194 18.1059 42.2014 18.0357C42.3833 17.9654 42.5773 17.9318 42.7722 17.9366C42.9672 17.9414 43.1592 17.9846 43.3375 18.0637C44.0871 18.3962 44.4254 19.2753 44.0928 20.0257C44.014 20.2041 43.9008 20.3653 43.7597 20.4999C43.6185 20.6346 43.4522 20.7401 43.2702 20.8104C43.0883 20.8807 42.8942 20.9144 42.6992 20.9096C42.5042 20.9048 42.3121 20.8616 42.1338 20.7825C41.3851 20.4499 41.0469 19.5716 41.3789 18.82Z" fill="black"/>
</g>
<defs>
<clipPath id="clip0_13_969">
<rect width="50" height="50" fill="white" transform="translate(0.102539)"/>
</clipPath>
</defs>
</svg>
