<svg width="425" height="290" viewBox="0 0 425 290" fill="none" xmlns="http://www.w3.org/2000/svg">
<path d="M19 1H406" stroke="black" stroke-opacity="0.1" stroke-dasharray="3 3"/>
<path d="M19 73H406" stroke="black" stroke-opacity="0.1" stroke-dasharray="3 3"/>
<path d="M19 145H406" stroke="black" stroke-opacity="0.1" stroke-dasharray="3 3"/>
<path d="M19 217H406" stroke="black" stroke-opacity="0.1" stroke-dasharray="3 3"/>
<path d="M19 289H406" stroke="black" stroke-opacity="0.1"/>
<path d="M0 0.999969C0 0.999969 43.5 0.999962 87 17.5C149.8 41.3206 116.5 23 151 23C186.795 23 189.793 49.2772 218.5 56C247.207 62.7227 272.483 32.5133 293.5 17.5C297 14.9998 306.009 12.7855 329 14.9998C351.947 17.2097 346.451 1.06278 376.822 0.999901L425 0.999893L377 0.999718C376.94 0.999718 376.881 0.999779 376.822 0.999901L0 0.999969Z" fill="url(#paint0_linear_34_1539)"/>
<path d="M1 1.5C1 1.5 33.3618 -0.547473 71.5 12.4998C109.5 25.4998 116.785 29.4999 126.5 29.4999C131 29.4999 132.5 25.6126 142.5 23.4999C178 15.9999 191.5 50.4999 220 55.9999C248.105 61.4237 278.5 28.9999 287.5 21.9999C307.262 6.62909 320.5 19.4999 342 13.9999C347.864 12.4999 356 1.49988 371 1.49988" stroke="#E24141"/>
<defs>
<linearGradient id="paint0_linear_34_1539" x1="216.228" y1="0.999638" x2="216.228" y2="191.999" gradientUnits="userSpaceOnUse">
<stop stop-color="#E24141" stop-opacity="0.25"/>
<stop offset="1" stop-color="#E24141"/>
</linearGradient>
</defs>
</svg>
