<svg width="51" height="50" viewBox="0 0 51 50" fill="none" xmlns="http://www.w3.org/2000/svg">
<g clip-path="url(#clip0_13_914)">
<path d="M50.6907 0.000488281H0.690674V50.0002H50.6907V0.000488281Z" fill="#F7DF1E"/>
<path d="M34.2779 39.0629C35.2851 40.7074 36.5954 41.9161 38.9129 41.9161C40.8597 41.9161 42.1033 40.9431 42.1033 39.5986C42.1033 37.9875 40.8256 37.4169 38.6827 36.4796L37.5081 35.9756C34.1176 34.5312 31.8652 32.7217 31.8652 28.8963C31.8652 25.3725 34.5502 22.6899 38.7462 22.6899C41.7335 22.6899 43.8811 23.7296 45.4287 26.4518L41.77 28.801C40.9644 27.3566 40.0954 26.7875 38.7462 26.7875C37.37 26.7875 36.4978 27.6606 36.4978 28.801C36.4978 30.2106 37.3708 30.7812 39.3867 31.6542L40.5613 32.1574C44.5533 33.8693 46.8073 35.6145 46.8073 39.5383C46.8073 43.7685 43.4843 46.0859 39.0216 46.0859C34.6581 46.0859 31.839 44.0066 30.4597 41.2812L34.2779 39.0629ZM17.6803 39.4701C18.4184 40.7796 19.0898 41.8867 20.7041 41.8867C22.2478 41.8867 23.2216 41.2828 23.2216 38.9344V22.9582H27.92V38.9979C27.92 43.8629 25.0676 46.0772 20.9041 46.0772C17.1422 46.0772 14.9637 44.1304 13.8557 41.7856L17.6803 39.4701Z" fill="black"/>
</g>
<defs>
<clipPath id="clip0_13_914">
<rect width="50" height="50" fill="white" transform="translate(0.690674)"/>
</clipPath>
</defs>
</svg>
